<svg width="37" height="35" viewBox="0 0 37 35" fill="none" xmlns="http://www.w3.org/2000/svg">
<path d="M6.8605 4.24776H1.91351C1.00826 4.24776 0.274414 4.9545 0.274414 5.82631C0.274414 6.69804 1.00826 7.40478 1.91351 7.40478H6.8605V4.24776Z" fill="#6534CD"/>
<path d="M6.86063 15.7192H4.89373C3.98848 15.7192 3.25464 16.4259 3.25464 17.2977C3.25464 18.1695 3.98848 18.8762 4.89373 18.8762H6.86063V15.7192Z" fill="#6534CD"/>
<path d="M9.84058 18.8762V15.7192H21.1352V18.8762H9.84058Z" fill="#6534CD"/>
<path d="M6.8605 27.3085H1.91351C1.00826 27.3085 0.274414 28.0152 0.274414 28.8869C0.274414 29.7587 1.00826 30.4655 1.91351 30.4655H6.8605V27.3085Z" fill="#6534CD"/>
<path d="M9.84058 30.4655V27.3085H25.6951V30.4655H9.84058Z" fill="#6534CD"/>
<path d="M9.84058 7.40478V4.24776H15.2049V7.40478H9.84058Z" fill="#6534CD"/>
<path d="M16.0405 0.0421219H14.5366C12.7927 0.0421219 11.6389 1.78622 12.3758 3.30837L20.8151 20.7387V32.1862C20.8151 33.4543 21.8825 34.4822 23.1992 34.4822H25.0836C26.4004 34.4822 27.4677 33.4543 27.4677 32.1862V20.7387L35.8174 3.29951C36.5459 1.77818 35.392 0.0421219 33.6524 0.0421219H32.1747C31.3589 0.0421219 30.6179 0.500091 30.2781 1.21439L24.1954 14.0028L17.9275 1.19464C17.5832 0.49107 16.8482 0.0421219 16.0405 0.0421219Z" fill="#7C41FA"/>
<path d="M24.2225 13.9485L27.5452 20.7523H20.8999L24.2225 13.9485Z" fill="#6534CD"/>
</svg>
